<svg xmlns="http://www.w3.org/2000/svg" width="400" height="411.423" viewBox="0 0 400 411.423">
  <path id="blockchain" d="M401.778,94.661c-.029-.174-.023-.357-.068-.528a5.635,5.635,0,0,0-.551-1.343,4.389,4.389,0,0,0-.3-.4,5.6,5.6,0,0,0-.586-.766c-.132-.135-.3-.229-.444-.351a5.542,5.542,0,0,0-.689-.541l-.042-.016-.035-.026L351.976,63.715a5.639,5.639,0,0,0-5.6,0L299.259,90.69l-.035.026-.042.016a5.555,5.555,0,0,0-.692.544,4.045,4.045,0,0,0-.441.348,5.592,5.592,0,0,0-.593.776c-.093.135-.213.248-.293.39a5.644,5.644,0,0,0-.551,1.343c-.045.164-.039.341-.068.509a5.532,5.532,0,0,0-.122.937V107.06L254.52,80.82a5.515,5.515,0,0,0,.116-.857V32.86a5.539,5.539,0,0,0-.122-.921c-.029-.174-.023-.357-.068-.528a5.632,5.632,0,0,0-.551-1.34,5.7,5.7,0,0,0-.364-.483,5.575,5.575,0,0,0-.519-.68,5.755,5.755,0,0,0-.535-.419,5.538,5.538,0,0,0-.605-.473h-.032l-.023-.048L204.7.993a5.639,5.639,0,0,0-5.6,0L151.982,27.968l-.039.029h-.032a5.534,5.534,0,0,0-.609.477,5.74,5.74,0,0,0-.531.415,5.591,5.591,0,0,0-.525.689,5.724,5.724,0,0,0-.357.473,5.632,5.632,0,0,0-.551,1.343c-.045.164-.039.341-.068.509a5.539,5.539,0,0,0-.122.937V79.963a5.517,5.517,0,0,0,.116.86L107.372,107.06V95.582a5.535,5.535,0,0,0-.122-.921c-.029-.174-.023-.357-.068-.528a5.632,5.632,0,0,0-.551-1.343,4.407,4.407,0,0,0-.3-.4,5.593,5.593,0,0,0-.586-.766c-.132-.135-.3-.229-.444-.351a5.542,5.542,0,0,0-.689-.541l-.042-.016-.035-.026L57.441,63.715a5.639,5.639,0,0,0-5.6,0L4.734,90.69l-.035.026-.042.016a5.556,5.556,0,0,0-.692.544,4.041,4.041,0,0,0-.441.348,5.591,5.591,0,0,0-.593.776c-.093.135-.213.248-.293.39a5.646,5.646,0,0,0-.551,1.343c-.045.164-.039.341-.068.509a5.536,5.536,0,0,0-.122.937v47.1a5.636,5.636,0,0,0,2.935,4.947L49,171.747V236.28L4.734,261.632l-.035.026-.042.016a5.552,5.552,0,0,0-.692.544,4.041,4.041,0,0,0-.441.348,5.591,5.591,0,0,0-.593.776c-.093.135-.213.248-.293.39a5.645,5.645,0,0,0-.551,1.343c-.045.164-.039.341-.068.509a5.537,5.537,0,0,0-.122.937v47.1a5.636,5.636,0,0,0,2.94,4.947l47.1,25.709a5.55,5.55,0,0,0,.821.322,4.761,4.761,0,0,0,.448.174,5.45,5.45,0,0,0,2.863,0c.155-.042.3-.122.448-.174a5.55,5.55,0,0,0,.821-.322L97.33,322.448l51.85,34.521v23.358a5.636,5.636,0,0,0,2.935,4.947l47.1,25.709a5.553,5.553,0,0,0,.821.322,4.771,4.771,0,0,0,.448.174,5.448,5.448,0,0,0,2.863,0c.155-.042.3-.122.448-.174a5.551,5.551,0,0,0,.821-.322L251.7,385.267a5.636,5.636,0,0,0,2.934-4.947V356.962l51.85-34.521,39.992,21.832a5.553,5.553,0,0,0,.821.322,4.767,4.767,0,0,0,.448.174,5.449,5.449,0,0,0,2.863,0c.155-.042.3-.122.448-.174a5.558,5.558,0,0,0,.821-.322l47.084-25.7a5.636,5.636,0,0,0,2.934-4.947v-47.1a5.532,5.532,0,0,0-.122-.921c-.029-.174-.023-.357-.068-.528a5.633,5.633,0,0,0-.551-1.343,4.417,4.417,0,0,0-.3-.4,5.6,5.6,0,0,0-.586-.767c-.132-.135-.3-.229-.444-.351a5.541,5.541,0,0,0-.689-.541l-.042-.016-.035-.026-44.266-25.352V171.747l44.166-24.109a5.636,5.636,0,0,0,2.934-4.947V95.582a5.543,5.543,0,0,0-.116-.921ZM236.012,333.9,201.9,352.518,167.789,333.9l-1.443-.789,35.554-20.36,35.554,20.347ZM96.1,139.339,60.272,158.894V124.638L96.1,105.083Zm-41.464,106.7L90.19,266.4l-1.443.789L54.636,285.811,20.524,267.19l-1.443-.789Zm46.627,13.713L60.272,236.277V171.747L97.61,151.365l51.554,33.545v41.119ZM160.436,76.617V42.36l35.828,19.568V96.175Zm82.928,0L207.536,96.175V61.928l35.828-19.561ZM201.9,161.371l35.554,20.36-1.443.789L201.9,201.141,167.789,182.52l-1.443-.789Zm-41.464,29.98,35.828,19.558v34.266L160.436,225.61Zm47.1,19.558,35.828-19.558v34.26l-35.828,19.565Zm47.1-26,51.554-33.554,37.339,20.392V236.28l-40.991,23.478-47.9-33.728Zm88.886-60.272v34.257L307.7,139.339V105.083ZM307.7,310.281v-34.26l35.828,19.558v34.257Zm75.576-43.09-34.112,18.621L315.05,267.19l-1.443-.789,35.554-20.36,35.554,20.36ZM349.164,75.1l35.554,20.36-1.443.789L349.164,114.87,315.05,96.249l-1.443-.789Zm-52.539,69.028-47.812,31.12L207.536,151.61V109.018l37.809-20.643,51.081,31.986v22.318A5.621,5.621,0,0,0,296.625,144.128ZM201.9,12.381l35.551,20.363L203.459,51.3l-1.559.85-1.559-.85-33.992-18.56Zm-43.445,76,37.809,20.643V151.61l-41.277,23.639-47.812-31.12a5.623,5.623,0,0,0,.2-1.449V120.361ZM54.636,75.1,90.19,95.46l-1.443.789L54.636,114.87,20.524,96.249l-1.443-.789ZM13.178,105.083l35.828,19.558v34.253L13.178,139.339Zm0,170.941,35.828,19.558v34.257L13.178,310.281Zm47.1,19.558,35.828-19.558v34.257L60.278,329.836Zm46.781,19.8a5.581,5.581,0,0,0,.322-1.762V269.242l47.8-33.661,41.087,22.428v44.978l-44.282,25.352-.035.026-.042.016a5.554,5.554,0,0,0-.692.544,4.048,4.048,0,0,0-.441.348,5.588,5.588,0,0,0-.593.776c-.093.135-.213.248-.293.39a5.647,5.647,0,0,0-.551,1.343c-.045.164-.039.341-.068.509a5.537,5.537,0,0,0-.122.937v10.2Zm53.377,38.54v-11.2l35.828,19.558v34.257l-35.828-19.555Zm47.1,42.617V362.286l35.828-19.558v34.26Zm47.1-63.312a5.539,5.539,0,0,0-.122-.921c-.029-.174-.023-.358-.068-.528a5.633,5.633,0,0,0-.551-1.343,4.414,4.414,0,0,0-.3-.4,5.591,5.591,0,0,0-.586-.766c-.132-.135-.3-.229-.444-.351a5.539,5.539,0,0,0-.689-.541l-.042-.016-.035-.026-44.263-25.352V258.009l41.087-22.428,47.805,33.661v44.382a5.58,5.58,0,0,0,.322,1.762l-42.1,28.041Zm100.158-3.394V295.579l35.828-19.558v34.26Zm0-170.941V124.638l35.828-19.555v34.257Z" transform="translate(-1.897 -0.248)" fill="#161d6f"/>
</svg>
