<svg xmlns="http://www.w3.org/2000/svg" width="150" height="197.22" viewBox="0 0 150 197.22">
  <g id="그룹_278" data-name="그룹 278" transform="translate(-374 -1270.77)">
    <g id="패스_3" data-name="패스 3" transform="translate(374 1270.77)" fill="#fffee9">
      <path d="M 149.5 196.7200927734375 L 0.5 196.7200927734375 L 0.5 0.4999963939189911 L 149.5 0.4999963939189911 L 149.5 196.7200927734375 Z" stroke="none"/>
      <path d="M 1 1 L 1 196.2200927734375 L 149 196.2200927734375 L 149 1 L 1 1 M 0 0 L 150 0 L 150 197.2200927734375 L 0 197.2200927734375 L 0 0 Z" stroke="none" fill="#707070"/>
    </g>
    <g id="그룹_277" data-name="그룹 277" transform="translate(388 1283.633)">
      <g id="certificate_2_" data-name="certificate (2)" transform="translate(0 1.381)">
        <path id="패스_83" data-name="패스 83" d="M176.265,0H73.568A9.579,9.579,0,0,0,64,9.568V153.089a9.579,9.579,0,0,0,9.568,9.568h102.7a9.579,9.579,0,0,0,9.568-9.568V9.568A9.579,9.579,0,0,0,176.265,0Zm0,153.089H73.568V9.568h102.7C176.271,156.229,176.3,153.089,176.265,153.089Z" transform="translate(-64 0)" fill="#eceed7"/>
        <path id="패스_84" data-name="패스 84" d="M262.631,200a22.657,22.657,0,0,0-22.56,24.525c-.124.666-.084-2.111-.084,44.046A4.786,4.786,0,0,0,246.581,273l16.05-6.562L278.681,273a4.786,4.786,0,0,0,6.595-4.428V222.644A22.67,22.67,0,0,0,262.631,200Zm0,9.568a13.077,13.077,0,1,1-13.077,13.076A13.091,13.091,0,0,1,262.631,209.568Zm1.811,47.272a4.788,4.788,0,0,0-3.621,0l-11.266,4.606V241.114a22.558,22.558,0,0,0,26.153,0v20.332Z" transform="translate(-183.855 -136.213)" fill="#eceed7"/>
        <path id="패스_85" data-name="패스 85" d="M204.225,72H132.784a4.784,4.784,0,0,0,0,9.568h71.441a4.784,4.784,0,1,0,0-9.568Z" transform="translate(-107.588 -49.037)" fill="#eceed7"/>
        <path id="패스_86" data-name="패스 86" d="M204.225,136H132.784a4.784,4.784,0,0,0,0,9.568h71.441a4.784,4.784,0,1,0,0-9.568Z" transform="translate(-107.588 -92.625)" fill="#eceed7"/>
        <path id="패스_87" data-name="패스 87" d="M149.217,202h-17.56c-2.02,0-3.658,2.142-3.658,4.784s1.638,4.784,3.658,4.784h17.56c2.021,0,3.659-2.143,3.659-4.784S151.238,202,149.217,202Z" transform="translate(-107.588 -137.575)" fill="#eceed7"/>
        <path id="패스_88" data-name="패스 88" d="M148.093,264H132.784a4.784,4.784,0,0,0,0,9.568h15.309a4.784,4.784,0,0,0,0-9.568Z" transform="translate(-107.588 -179.801)" fill="#eceed7"/>
        <path id="패스_89" data-name="패스 89" d="M148.093,328H132.784a4.784,4.784,0,1,0,0,9.568h15.309a4.784,4.784,0,0,0,0-9.568Z" transform="translate(-107.588 -223.39)" fill="#eceed7"/>
        <path id="패스_90" data-name="패스 90" d="M148.093,392H132.784a4.784,4.784,0,0,0,0,9.569h15.309a4.784,4.784,0,0,0,0-9.569Z" transform="translate(-107.588 -266.977)" fill="#eceed7"/>
      </g>
      <g id="그룹_276" data-name="그룹 276" transform="translate(85.826)">
        <g id="그룹_249" data-name="그룹 249" transform="translate(0)">
          <g id="pencil" transform="translate(21.525 0.284)">
            <g id="그룹_96" data-name="그룹 96" transform="translate(0 10.466)">
              <g id="그룹_95" data-name="그룹 95">
                <path id="패스_38" data-name="패스 38" d="M1.517,353.28,0,357.982l4.7-1.517Z" transform="translate(0 -353.28)" fill="#715a00"/>
              </g>
            </g>
            <g id="그룹_98" data-name="그룹 98" transform="translate(2.582 1.976)">
              <g id="그룹_97" data-name="그룹 97" transform="translate(0 0)">
                <rect id="사각형_59" data-name="사각형 59" width="10.466" height="4.55" transform="translate(0 7.4) rotate(-45)" fill="#715a00"/>
              </g>
            </g>
            <g id="그룹_100" data-name="그룹 100" transform="translate(11.072)">
              <g id="그룹_99" data-name="그룹 99">
                <path id="패스_39" data-name="패스 39" d="M377.628,2.351,375.5.228a.733.733,0,0,0-1.062,0L373.76.91,376.945,4.1l.683-.683A.733.733,0,0,0,377.628,2.351Z" transform="translate(-373.76)" fill="#715a00"/>
              </g>
            </g>
          </g>
          <g id="plus">
            <g id="그룹_101" data-name="그룹 101">
              <path id="패스_40" data-name="패스 40" d="M8.53,6.638V0H6.638V6.638H0V8.53H6.638v6.638H8.53V8.53h6.638V6.638Z" fill="#715a00"/>
            </g>
          </g>
        </g>
      </g>
    </g>
  </g>
</svg>
