<svg xmlns="http://www.w3.org/2000/svg" width="150" height="197.217" viewBox="0 0 150 197.217">
  <g id="그룹_283" data-name="그룹 283" transform="translate(-360.674 -1795)">
    <g id="그룹_282" data-name="그룹 282" transform="translate(360.674 1795)">
      <g id="패스_3" data-name="패스 3" transform="translate(0)" fill="#ecf1ff">
        <path d="M 149.5 196.7171630859375 L 0.5 196.7171630859375 L 0.5 0.5000065565109253 L 149.5 0.5000065565109253 L 149.5 196.7171630859375 Z" stroke="none"/>
        <path d="M 1 1 L 1 196.2171630859375 L 149 196.2171630859375 L 149 1 L 1 1 M 0 0 L 150 0 L 150 197.2171630859375 L 0 197.2171630859375 L 0 0 Z" stroke="none" fill="#707070"/>
      </g>
    </g>
    <g id="그룹_279" data-name="그룹 279" transform="translate(366.989 1805.052)">
      <g id="Diploma-Degree-Certificate-Education-Graduation" transform="translate(3.106 0)">
        <path id="패스_91" data-name="패스 91" d="M131.962,2H18.924A8.951,8.951,0,0,0,10,10.924V171.558a8.951,8.951,0,0,0,8.924,8.924H131.962a8.951,8.951,0,0,0,8.924-8.924V10.924A8.951,8.951,0,0,0,131.962,2Zm2.975,169.558a2.975,2.975,0,0,1-2.975,2.975H18.924a2.975,2.975,0,0,1-2.975-2.975V10.924a2.975,2.975,0,0,1,2.975-2.975H131.962a2.975,2.975,0,0,1,2.975,2.975Z" transform="translate(-10 -2)" fill="#dee6ff"/>
        <path id="패스_92" data-name="패스 92" d="M118.114,20.873a11.9,11.9,0,0,1-11.9-11.9A2.975,2.975,0,0,0,103.241,6H31.848a2.975,2.975,0,0,0-2.975,2.975,11.9,11.9,0,0,1-11.9,11.9A2.975,2.975,0,0,0,14,23.848V142.836a2.975,2.975,0,0,0,2.975,2.975,11.9,11.9,0,0,1,11.9,11.9,2.975,2.975,0,0,0,2.975,2.975h71.393a2.975,2.975,0,0,0,2.975-2.975,11.9,11.9,0,0,1,11.9-11.9,2.975,2.975,0,0,0,2.975-2.975V23.848A2.975,2.975,0,0,0,118.114,20.873ZM115.14,140.1A17.961,17.961,0,0,0,100.5,154.735H34.585A17.961,17.961,0,0,0,19.949,140.1V26.585A17.961,17.961,0,0,0,34.585,11.949H100.5A17.961,17.961,0,0,0,115.14,26.585Z" transform="translate(-2.101 5.899)" fill="#dee6ff"/>
        <path id="패스_93" data-name="패스 93" d="M48,6h5.949v5.949H48Z" transform="translate(65.038 5.899)" fill="#dee6ff"/>
        <path id="패스_94" data-name="패스 94" d="M14,6h5.949v5.949H14Z" transform="translate(-2.101 5.899)" fill="#dee6ff"/>
        <path id="패스_95" data-name="패스 95" d="M48,56h5.949v5.949H48Z" transform="translate(65.038 104.633)" fill="#dee6ff"/>
        <path id="패스_96" data-name="패스 96" d="M14,56h5.949v5.949H14Z" transform="translate(-2.101 104.633)" fill="#dee6ff"/>
        <path id="패스_97" data-name="패스 97" d="M43.848,35A17.833,17.833,0,0,0,28.975,62.694V82.6a2.975,2.975,0,0,0,4.313,2.647l10.56-5.265,10.56,5.265a3.064,3.064,0,0,0,1.339.327,3.016,3.016,0,0,0,1.577-.446,2.975,2.975,0,0,0,1.4-2.528v-19.9A17.833,17.833,0,0,0,43.848,35ZM40.873,74.8l-5.949,2.975V68.287a17.8,17.8,0,0,0,5.949,2.142Zm11.9,2.975L46.823,74.8V70.429a17.8,17.8,0,0,0,5.949-2.142ZM43.848,64.747a11.9,11.9,0,1,1,11.9-11.9A11.9,11.9,0,0,1,43.848,64.747Z" transform="translate(21.595 63.165)" fill="#dee6ff"/>
        <path id="패스_98" data-name="패스 98" d="M28.975,35.8H58.722A2.975,2.975,0,0,0,61.7,32.823V14.975A2.975,2.975,0,0,0,58.722,12H28.975A2.975,2.975,0,0,0,26,14.975V32.823A2.975,2.975,0,0,0,28.975,35.8Zm2.975-17.848h23.8v11.9h-23.8Z" transform="translate(21.595 17.747)" fill="#dee6ff"/>
        <path id="패스_99" data-name="패스 99" d="M21,22H86.443v5.949H21Z" transform="translate(11.722 37.494)" fill="#dee6ff"/>
        <path id="패스_100" data-name="패스 100" d="M21,26H86.443v5.949H21Z" transform="translate(11.722 45.393)" fill="#dee6ff"/>
        <path id="패스_101" data-name="패스 101" d="M21,30H86.443v5.949H21Z" transform="translate(11.722 53.291)" fill="#dee6ff"/>
      </g>
      <g id="그룹_164" data-name="그룹 164" transform="translate(0 162.085)">
        <g id="plus" transform="translate(0 0)">
          <g id="그룹_101" data-name="그룹 101">
            <path id="패스_40" data-name="패스 40" d="M9.221,7.175V0H7.175V7.175H0V9.221H7.175V16.4H9.221V9.221H16.4V7.175Z" fill="#365dd2"/>
          </g>
        </g>
      </g>
    </g>
  </g>
</svg>
