<svg xmlns="http://www.w3.org/2000/svg" width="50" height="51.284" viewBox="0 0 50 51.284">
  <path id="작은로고화이트" d="M53.483,11.924c0-.014,0-.028-.006-.042a1.365,1.365,0,0,0-.033-.153l-.006-.023a1.367,1.367,0,0,0-.063-.168l-.013-.027a1.376,1.376,0,0,0-.074-.136l-.016-.026a1.359,1.359,0,0,0-.1-.14l-.023-.025a1.414,1.414,0,0,0-.1-.105l-.028-.025a1.391,1.391,0,0,0-.141-.106l-.023-.014a1.38,1.38,0,0,0-.146-.08l-.015-.008L29.064.123a1.376,1.376,0,0,0-1.139,0L11.6,7.531a1.378,1.378,0,0,0,1.139,2.509L28.495,2.89,48.74,12.079l-20.245,8.9L5.427,10.838l0,0c-.034-.015-.069-.027-.1-.039l-.026-.01c-.029-.009-.059-.016-.088-.024l-.047-.012-.058-.01c-.027,0-.054-.009-.08-.012l-.038,0c-.034,0-.067,0-.1,0H4.872l-.039,0c-.03,0-.06,0-.089,0s-.045.006-.068.009l-.062.01c-.028.005-.055.012-.083.019l-.044.012c-.03.009-.059.019-.088.029l-.037.014c-.028.011-.056.024-.084.037l-.038.019c-.025.013-.049.027-.073.042l-.044.027c-.021.013-.041.028-.061.042l-.05.037-.049.042c-.018.015-.035.031-.052.047s-.028.029-.042.044-.033.035-.049.054-.027.034-.04.051-.027.035-.04.053-.029.045-.043.068-.019.029-.027.045-.031.06-.046.091c0,.009-.009.017-.013.026l0,0c-.015.034-.027.069-.039.1,0,.009-.007.018-.01.027-.009.028-.016.058-.023.087s-.009.032-.012.048-.006.036-.009.055-.01.056-.013.084c0,.011,0,.022,0,.033,0,.035-.005.071-.005.106,0,0,0,0,0,.006V39a1.378,1.378,0,0,0,.8,1.251l23.622,10.91,0,0,.03.012a1.375,1.375,0,0,0,.139.051l.05.014q.067.018.134.029l.042.007a1.374,1.374,0,0,0,.177.013h.017a1.343,1.343,0,0,0,.156-.011l.057-.009c.04-.007.08-.015.12-.026l.055-.015a1.355,1.355,0,0,0,.13-.047l.036-.014.008,0L52.7,40.246a1.378,1.378,0,0,0,.8-1.251V12.1A1.373,1.373,0,0,0,53.483,11.924ZM29.873,47.752v-18.5a1.378,1.378,0,1,0-2.755,0v18.5L6.25,38.114v-23.9l21.691,9.532a1.378,1.378,0,0,0,1.109,0l21.69-9.532v23.9Z" transform="translate(-3.495 0)" fill="#fff"/>
</svg>
