<svg xmlns="http://www.w3.org/2000/svg" width="150" height="197.22" viewBox="0 0 150 197.22">
  <g id="그룹_286" data-name="그룹 286" transform="translate(-29 -666.769)">
    <g id="패스_3" data-name="패스 3" transform="translate(29 666.769)" fill="#edf6f3">
      <path d="M 149.5 196.7200927734375 L 0.5 196.7200927734375 L 0.5 0.4999963939189911 L 149.5 0.4999963939189911 L 149.5 196.7200927734375 Z" stroke="none"/>
      <path d="M 1 1 L 1 196.2200927734375 L 149 196.2200927734375 L 149 1 L 1 1 M 0 0 L 150 0 L 150 197.2200927734375 L 0 197.2200927734375 L 0 0 Z" stroke="none" fill="#707070"/>
    </g>
    <g id="portfolio" transform="translate(40.199 682.336)">
      <path id="패스_73" data-name="패스 73" d="M64.385,37.416A2.385,2.385,0,0,1,62,35.03V27.945a2.385,2.385,0,0,1,4.771,0V35.03A2.385,2.385,0,0,1,64.385,37.416Z" transform="translate(62.043 30.641)" fill="#d9eede"/>
      <path id="패스_74" data-name="패스 74" d="M136.429,168.981H12.385A2.385,2.385,0,0,1,10,166.6V4.385A2.385,2.385,0,0,1,12.385,2H136.429a2.385,2.385,0,0,1,2.385,2.385v39.5a2.385,2.385,0,1,1-4.771,0V6.771H14.771V164.21H134.043v-56.2a2.385,2.385,0,1,1,4.771,0V166.6A2.385,2.385,0,0,1,136.429,168.981Z" transform="translate(-10 -2)" fill="#d9eede"/>
      <path id="패스_75" data-name="패스 75" d="M64.385,47.243A2.385,2.385,0,0,1,62,44.857V37.915a2.385,2.385,0,0,1,4.771,0v6.942A2.385,2.385,0,0,1,64.385,47.243Z" transform="translate(62.043 44.454)" fill="#d9eede"/>
      <path id="패스_76" data-name="패스 76" d="M54,68.648A29.272,29.272,0,1,1,83.273,39.376,29.272,29.272,0,0,1,54,68.648Zm0-53.782a24.5,24.5,0,1,0,24.5,24.51A24.5,24.5,0,0,0,54,14.865Z" transform="translate(10.406 9.228)" fill="#d9eede"/>
      <path id="패스_77" data-name="패스 77" d="M72.4,39.153a2.385,2.385,0,0,1-1.908-.954,24.508,24.508,0,0,0-39.217,0,2.385,2.385,0,0,1-3.817-2.863,29.281,29.281,0,0,1,46.845,0A2.385,2.385,0,0,1,72.4,39.153Z" transform="translate(13.526 27.963)" fill="#d9eede"/>
      <path id="패스_78" data-name="패스 78" d="M43.74,39.106A11.605,11.605,0,1,1,55.345,27.5,11.605,11.605,0,0,1,43.74,39.106Zm0-18.439a6.83,6.83,0,1,1,0,.01Z" transform="translate(20.667 17.252)" fill="#d9eede"/>
      <path id="패스_79" data-name="패스 79" d="M111.918,46.671H18.885a2.385,2.385,0,0,1,0-4.771h93.032a2.385,2.385,0,0,1,0,4.771Z" transform="translate(-0.995 53.279)" fill="#d9eede"/>
      <path id="패스_80" data-name="패스 80" d="M111.918,56.671H18.885a2.385,2.385,0,0,1,0-4.771h93.032a2.385,2.385,0,0,1,0,4.771Z" transform="translate(-0.995 67.134)" fill="#d9eede"/>
      <path id="패스_81" data-name="패스 81" d="M111.918,66.671H18.885a2.385,2.385,0,1,1,0-4.771h93.032a2.385,2.385,0,0,1,0,4.771Z" transform="translate(-0.995 80.988)" fill="#d9eede"/>
    </g>
    <g id="그룹_102" data-name="그룹 102" transform="translate(131.016 675.569)">
      <g id="그룹_249" data-name="그룹 249" transform="translate(0)">
        <g id="pencil" transform="translate(22.841 0.299)">
          <g id="그룹_96" data-name="그룹 96" transform="translate(0 11.106)">
            <g id="그룹_95" data-name="그룹 95">
              <path id="패스_38" data-name="패스 38" d="M1.609,353.28,0,358.269l4.989-1.609Z" transform="translate(0 -353.28)" fill="#0e9187"/>
            </g>
          </g>
          <g id="그룹_98" data-name="그룹 98" transform="translate(2.74 2.096)">
            <g id="그룹_97" data-name="그룹 97" transform="translate(0 0)">
              <rect id="사각형_59" data-name="사각형 59" width="11.105" height="4.828" transform="translate(0 7.853) rotate(-45)" fill="#0e9187"/>
            </g>
          </g>
          <g id="그룹_100" data-name="그룹 100" transform="translate(11.749)">
            <g id="그룹_99" data-name="그룹 99">
              <path id="패스_39" data-name="패스 39" d="M377.864,2.495,375.611.241a.778.778,0,0,0-1.127,0l-.724.724,3.38,3.38.724-.724A.778.778,0,0,0,377.864,2.495Z" transform="translate(-373.76)" fill="#0e9187"/>
            </g>
          </g>
        </g>
        <g id="plus">
          <g id="그룹_101" data-name="그룹 101">
            <path id="패스_40" data-name="패스 40" d="M9.052,7.043V0H7.043V7.043H0V9.052H7.043V16.1H9.052V9.052H16.1V7.043Z" fill="#0e9187"/>
          </g>
        </g>
      </g>
    </g>
  </g>
</svg>
