<svg id="resume" xmlns="http://www.w3.org/2000/svg" width="400" height="400" viewBox="0 0 400 400">
  <g id="그룹_139" data-name="그룹 139">
    <g id="그룹_138" data-name="그룹 138">
      <path id="패스_71" data-name="패스 71" d="M367.742,296.774H335.484v-12.9h45.161V181.3l17.942-22.432-10.077-8.058-23.871,29.839H335.484V0H0V400H335.484V361.29h32.258a32.258,32.258,0,0,0,0-64.516ZM354.316,193.548l-38.723,48.406L301.335,227.7l-9.123,9.123,24.452,24.452,51.077-63.845v73.542H277.419V193.548ZM322.581,387.1H12.9V12.9H322.581V180.645H264.516V283.871h58.065v12.9H160.123l-18.187,6.819V270.968H25.806V374.194H141.936V354.471l18.187,6.819H322.581Zm-12.9-51.613v12.9H167.742v-12.9H283.871v-12.9H167.742v-12.9H309.677v12.9h-12.9v12.9Zm-196.226,8.31,15.581,5.839V361.29H38.71V283.871h90.323v24.561l-15.587,5.845a15.764,15.764,0,0,0,.006,29.516Zm4.542-12.077a2.861,2.861,0,0,1-.006-5.361l36.852-13.819v32.994Zm217.49,16.671h-12.9v-38.71h12.9Zm32.258,0H348.387v-38.71h19.355a19.355,19.355,0,1,1,0,38.71Z" fill="#161d6f"/>
    </g>
  </g>
  <g id="그룹_141" data-name="그룹 141" transform="translate(23.703 25.806)">
    <g id="그룹_140" data-name="그룹 140">
      <path id="패스_72" data-name="패스 72" d="M231.282,233.568a44.985,44.985,0,0,0-34.568-31.877l-36.187-7.239v-1.7a51.729,51.729,0,0,0,24.232-32.219,25.82,25.82,0,0,0,20.929-25.31V77.161a25.834,25.834,0,0,0-23.523-25.7l-7.445-5.587A69.355,69.355,0,0,0,63.753,101.355v33.871a25.832,25.832,0,0,0,20.929,25.316,51.729,51.729,0,0,0,24.232,32.219v1.7L72.734,201.7a44.976,44.976,0,0,0-34.568,31.877l-8.774,30.684H240.05Zm-44.948-87.232V124.116a12.791,12.791,0,0,1,0,22.219Zm-103.226,0a12.791,12.791,0,0,1,0-22.219Zm-6.452-33.329V101.355a56.452,56.452,0,0,1,90.323-45.161l10.755,8.065h2.148a12.916,12.916,0,0,1,12.9,12.9v35.845a25.541,25.541,0,0,0-12.9-3.587H128.269a12.916,12.916,0,0,1-12.9-12.9h-12.9a12.916,12.916,0,0,1-12.9,12.9A25.541,25.541,0,0,0,76.657,113.006Zm19.355,35.123v-26.7a25.815,25.815,0,0,0,12.9-7.858,25.743,25.743,0,0,0,19.355,8.755h45.161v25.806a38.71,38.71,0,0,1-77.419,0Zm51.613,49.916v1.7a12.9,12.9,0,0,1-25.806,0v-1.7a49.91,49.91,0,0,0,25.806,0Zm43.748,53.31-5.232-20.916-12.516,3.123,4.445,17.794h-86.7l4.445-17.794L83.3,230.439l-5.232,20.916H46.5l4.071-14.245a32.13,32.13,0,0,1,24.69-22.768l34.929-6.987a25.632,25.632,0,0,0,49.058,0l34.929,6.987a32.151,32.151,0,0,1,24.69,22.768l4.071,14.245Z" transform="translate(-29.392 -32)" fill="#161d6f"/>
    </g>
  </g>
  <g id="그룹_143" data-name="그룹 143" transform="translate(212.403 24.806)">
    <g id="그룹_142" data-name="그룹 142" transform="translate(0 0)">
      <rect id="사각형_65" data-name="사각형 65" width="98" height="14" transform="translate(-0.403 0.194)" fill="#161d6f"/>
    </g>
  </g>
  <g id="그룹_145" data-name="그룹 145" transform="translate(212.403 51.162)">
    <g id="그룹_144" data-name="그룹 144" transform="translate(0 0)">
      <rect id="사각형_66" data-name="사각형 66" width="98" height="13" transform="translate(-0.403 -0.162)" fill="#161d6f"/>
    </g>
  </g>
  <g id="그룹_147" data-name="그룹 147" transform="translate(212.403 77.52)">
    <g id="그룹_146" data-name="그룹 146" transform="translate(0 0)">
      <rect id="사각형_67" data-name="사각형 67" width="98" height="12" transform="translate(-0.403 0.48)" fill="#161d6f"/>
    </g>
  </g>
  <g id="그룹_149" data-name="그룹 149" transform="translate(212.403 103.876)">
    <g id="그룹_148" data-name="그룹 148" transform="translate(0 0)">
      <rect id="사각형_68" data-name="사각형 68" width="98" height="12" transform="translate(-0.403 0.124)" fill="#161d6f"/>
    </g>
  </g>
  <g id="그룹_151" data-name="그룹 151" transform="translate(296.124 128.682)">
    <g id="그룹_150" data-name="그룹 150" transform="translate(0 0)">
      <rect id="사각형_69" data-name="사각형 69" width="14" height="14" transform="translate(-0.124 0.318)" fill="#161d6f"/>
    </g>
  </g>
  <g id="그룹_153" data-name="그룹 153" transform="translate(212.403 128.682)">
    <g id="그룹_152" data-name="그룹 152" transform="translate(0 0)">
      <rect id="사각형_70" data-name="사각형 70" width="72" height="14" transform="translate(-0.403 0.318)" fill="#161d6f"/>
    </g>
  </g>
  <g id="그룹_155" data-name="그룹 155" transform="translate(212.403 155.039)">
    <g id="그룹_154" data-name="그룹 154" transform="translate(0 0)">
      <rect id="사각형_71" data-name="사각형 71" width="98" height="12" transform="translate(-0.403 -0.039)" fill="#161d6f"/>
    </g>
  </g>
</svg>
