<svg xmlns="http://www.w3.org/2000/svg" xmlns:xlink="http://www.w3.org/1999/xlink" width="145" height="131" viewBox="0 0 145 131">
  <defs>
    <filter id="타원_3" x="85" y="71" width="60" height="60" filterUnits="userSpaceOnUse">
      <feOffset dy="3" input="SourceAlpha"/>
      <feGaussianBlur stdDeviation="3" result="blur"/>
      <feFlood flood-opacity="0.161"/>
      <feComposite operator="in" in2="blur"/>
      <feComposite in="SourceGraphic"/>
    </filter>
  </defs>
  <g id="그룹_280" data-name="그룹 280" transform="translate(-559 -132.606)">
    <g id="그룹_279" data-name="그룹 279">
      <g id="그룹_106" data-name="그룹 106" transform="translate(559.29 133)">
        <g id="타원_14" data-name="타원 14" transform="translate(-0.29 -0.394)" fill="none" stroke="#b9e7e7" stroke-width="3">
          <circle cx="59.5" cy="59.5" r="59.5" stroke="none"/>
          <circle cx="59.5" cy="59.5" r="58" fill="none"/>
        </g>
        <g id="profile" transform="translate(3.207 3.571)">
          <g id="그룹_90" data-name="그룹 90" transform="translate(0 0)">
            <g id="그룹_76" data-name="그룹 76" transform="translate(0 0.033)">
              <path id="패스_19" data-name="패스 19" d="M56.244,106.3l22.282-5.627A57.583,57.583,0,0,0,54.308.149,56.237,56.237,0,0,0,16.655,96.3Z" transform="translate(0 -0.149)" fill="#cbe2ff"/>
            </g>
            <g id="그룹_77" data-name="그룹 77" transform="translate(49.09)">
              <path id="패스_20" data-name="패스 20" d="M272.547,56.239a56.152,56.152,0,0,1-22.576,45.052l20.218-5.106A56.236,56.236,0,0,0,230.606,0a56.786,56.786,0,0,0-7.149.45A56.249,56.249,0,0,1,272.547,56.239Z" transform="translate(-223.457 0)" fill="#bed8fb"/>
            </g>
            <g id="그룹_89" data-name="그룹 89" transform="translate(15.385 16.098)">
              <g id="그룹_88" data-name="그룹 88">
                <g id="그룹_87" data-name="그룹 87">
                  <path id="패스_21" data-name="패스 21" d="M194.972,78.479a5.2,5.2,0,0,0-5.2-5.2H171.849A11.969,11.969,0,0,0,159.88,85.247V98.537H202.1v-13.1a5.2,5.2,0,0,0-5.2-5.2h-.175a1.756,1.756,0,0,1-1.757-1.756Z" transform="translate(-140.142 -73.278)" fill="#365e7d"/>
                  <path id="패스_22" data-name="패스 22" d="M296.1,80.234h-.175a1.757,1.757,0,0,1-1.757-1.757,5.2,5.2,0,0,0-5.2-5.2H287V98.536h14.3v-13.1A5.2,5.2,0,0,0,296.1,80.234Z" transform="translate(-239.338 -73.277)" fill="#2b4d66"/>
                  <path id="패스_23" data-name="패스 23" d="M148.022,342.269a12.467,12.467,0,0,0-5.007-3.02l-15.354-4.861-16.772-.59-16.779.59L78.756,339.25a12.5,12.5,0,0,0-8.724,11.913v4.195a56.076,56.076,0,0,0,38.924,17.557A57.683,57.683,0,0,0,148.022,342.269Z" transform="translate(-70.032 -276.567)" fill="#4a80aa"/>
                  <path id="패스_24" data-name="패스 24" d="M271.507,382.533v-4.195a12.494,12.494,0,0,0-4.636-9.713,56.285,56.285,0,0,1-43.353,31.045,56.733,56.733,0,0,0,7.036.452,60.091,60.091,0,0,0,6.771-.392A56.093,56.093,0,0,0,271.507,382.533Z" transform="translate(-189.799 -303.742)" fill="#407093"/>
                  <path id="패스_25" data-name="패스 25" d="M216.567,358.263c3.4-6.755,12.263-25.937,9.737-37.919L215.3,316.06l-11.017,4.284c-2.6,12.352,6.891,32.354,10.035,38.508Q215.45,358.58,216.567,358.263Z" transform="translate(-174.44 -262.725)" fill="#e4f6ff"/>
                  <path id="패스_26" data-name="패스 26" d="M237.987,421.428l-4.463-17.556H228.3l-4.452,17.509,5.5,6.128q2.1-.48,4.132-1.111Z" transform="translate(-190.06 -331.246)" fill="#e28086"/>
                  <path id="패스_27" data-name="패스 27" d="M245.448,500.764c.456.012.913.02,1.371.021q.8,0,1.587-.025l2.835-3.132a55.819,55.819,0,0,1-6.878,1.928Z" transform="translate(-206.066 -404.406)" fill="#dd636e"/>
                  <g id="그룹_85" data-name="그룹 85" transform="translate(19.738 14.092)">
                    <g id="그룹_84" data-name="그룹 84" transform="translate(11.712 32.006)">
                      <g id="그룹_83" data-name="그룹 83">
                        <g id="그룹_82" data-name="그룹 82">
                          <g id="그룹_81" data-name="그룹 81">
                            <g id="그룹_80" data-name="그룹 80">
                              <g id="그룹_79" data-name="그룹 79">
                                <g id="그룹_78" data-name="그룹 78">
                                  <path id="패스_28" data-name="패스 28" d="M231.994,293.017v-9.9h-18.8v9.9c0,5.192,9.4,10.862,9.4,10.862S231.994,298.209,231.994,293.017Z" transform="translate(-213.194 -283.117)" fill="#ffddce"/>
                                </g>
                              </g>
                            </g>
                          </g>
                        </g>
                      </g>
                    </g>
                    <path id="패스_29" data-name="패스 29" d="M202.1,146.847h-3.594a3.619,3.619,0,0,1-3.619-3.619v-1.98a3.82,3.82,0,0,0-5.019-3.627,28.3,28.3,0,0,1-17.755,0l-.007,0a3.82,3.82,0,0,0-5.019,3.627v1.981a3.619,3.619,0,0,1-3.619,3.619H159.88v5.918a2.738,2.738,0,0,0,2.738,2.738.9.9,0,0,1,.9.85,17.514,17.514,0,0,0,34.958,0,.9.9,0,0,1,.9-.85,2.738,2.738,0,0,0,2.738-2.738v-5.918Z" transform="translate(-159.88 -137.424)" fill="#ffddce"/>
                    <path id="패스_30" data-name="패스 30" d="M266.709,146.85a3.619,3.619,0,0,1-3.619-3.619v-1.98a3.82,3.82,0,0,0-5.019-3.627q-1.024.338-2.067.595v19.546a17.51,17.51,0,0,1-8.727,14.885,17.5,17.5,0,0,0,19.392-16.293.9.9,0,0,1,.9-.85,2.738,2.738,0,0,0,2.738-2.738v-5.918h-3.594Z" transform="translate(-228.078 -137.427)" fill="#ffcbbe"/>
                  </g>
                  <g id="그룹_86" data-name="그룹 86" transform="translate(24.078 53.335)">
                    <path id="패스_31" data-name="패스 31" d="M187.008,316.06l-7.372,5.99,7.731,9.559a2.561,2.561,0,0,0,3.428.131l5.814-4.857Z" transform="translate(-179.636 -316.06)" fill="#f4fbff"/>
                    <path id="패스_32" data-name="패스 32" d="M266.1,316.06l-9.2,10.823,5.464,4.672a2.561,2.561,0,0,0,3.438-.1l7.676-9.406Z" transform="translate(-239.925 -316.06)" fill="#f4fbff"/>
                  </g>
                </g>
                <path id="패스_33" data-name="패스 33" d="M170.34,316.06l-10.821,5.316a1.639,1.639,0,0,0-.734,2.223l2.12,4.11a2.752,2.752,0,0,1-.5,3.21l-1.319,1.317a2.746,2.746,0,0,0-.674,2.8c2.56,7.8,14.878,19.734,19.54,24.05q.47.012.942.018C175.513,352.525,163.533,327.543,170.34,316.06Z" transform="translate(-138.89 -262.725)" fill="#365e7d"/>
                <path id="패스_34" data-name="패스 34" d="M278.354,330.918a2.752,2.752,0,0,1-.5-3.21l2.12-4.11a1.639,1.639,0,0,0-.734-2.223l-10.821-5.316c6.805,11.479-5.166,36.452-8.551,43.036q.477-.008.952-.024c4.672-4.327,16.97-16.243,19.527-24.038a2.746,2.746,0,0,0-.674-2.8l-1.319-1.317Z" transform="translate(-218.164 -262.725)" fill="#365e7d"/>
                <path id="패스_35" data-name="패스 35" d="M236.563,365.327l-5.725,4.781,2.917,3.686h5.221l2.917-3.9Z" transform="translate(-195.512 -301.169)" fill="#dd636e"/>
              </g>
            </g>
          </g>
        </g>
      </g>
      <g id="그룹_104" data-name="그룹 104" transform="translate(652.716 196.228)">
        <g transform="matrix(1, 0, 0, 1, -93.72, -63.62)" filter="url(#타원_3)">
          <circle id="타원_3-2" data-name="타원 3" cx="21" cy="21" r="21" transform="translate(94 77)" fill="#e3f6f5"/>
        </g>
        <text id="_" data-name="+" transform="translate(6.284 46.379)" fill="#fff" font-size="43" font-family="SegoeUI-Bold, Segoe UI" font-weight="700"><tspan x="0" y="0">+</tspan></text>
      </g>
    </g>
  </g>
</svg>
